#!OML:ASF H:\Terrain\Patient Classification 1\Walking\liu\liu.ASF
:FULLY-SPECIFIED
:DEGREES
126
root 8.42288 16.0009 -9.13003 5.99951 5.30464 -0.88279
lowerback -3.46016 -4.19415 -2.10173
upperback -0.272794 -5.57791 3.18274
thorax 2.17317 -2.82626 4.13912
lowerneck -21.0978 -2.13668 -11.6283
upperneck 19.3289 -2.21337 12.4717
head 9.88701 -0.449176 6.08869
rclavicle 3.38928e-014 -2.74323e-014
rhumerus -46.3758 1.26517 -76.482
rradius 27.1233
rwrist -14.8089
rhand -32.1436 -23.3401
rfingers 7.12502
rthumb -5.38735 -53.2517
lclavicle 3.38928e-014 -2.74323e-014
lhumerus -25.5517 -16.1606 91.729
lradius 33.323
lwrist 5.68217
lhand -14.498 -27.1362
lfingers 7.12502
lthumb 11.6489 2.51998
rfemur -38.33 1.05695 24.2176
rtibia 46.9548
rfoot -13.9721 2.12697
rtoes -10.905
lfemur 1.49195 8.36571 -13.4988
ltibia 55.5071
lfoot 2.02305 12.1685
ltoes -22.9808
127
root 8.41263 16.0617 -8.94537 5.96898 5.03451 -0.974301
lowerback -3.40047 -3.94897 -2.06576
upperback -0.201635 -5.2523 3.13765
thorax 2.17615 -2.66371 4.09596
lowerneck -21.3053 -2.2449 -11.477
upperneck 19.3906 -2.40718 12.5113
head 9.97385 -0.517501 6.05604
rclavicle -1.77912e-014 1.23246e-014
rhumerus -45.5637 1.18761 -76.9083
rradius 27.3369
rwrist -14.757
rhand -31.6256 -23.7041
rfingers 7.12502
rthumb -4.88722 -53.6278
lclavicle -1.77912e-014 1.23246e-014
lhumerus -25.9493 -15.6228 91.9351
lradius 32.5614
lwrist 5.38495
lhand -14.2841 -26.6529
lfingers 7.12502
lthumb 11.8551 2.99146
rfemur -37.2207 1.07273 24.4772
rtibia 46.3588
rfoot -14.5585 2.42546
rtoes -10.1279
lfemur -0.674711 8.33817 -13.82
ltibia 58.0181
lfoot 2.53425 13.125
ltoes -15.5679
128
root 8.40256 16.1181 -8.76121 5.94856 4.686 -1.18682
lowerback -3.36503 -3.70097 -1.98979
upperback -0.117254 -4.92767 3.2257
thorax 2.21587 -2.50309 4.16537
lowerneck -21.4577 -2.34192 -11.612
upperneck 19.3703 -2.50211 12.6002
head 10.0115 -0.557229 6.10087
rclavicle -7.49418e-014 4.49253e-014
rhumerus -44.6475 1.32515 -77.166
rradius 27.6667
rwrist -15.0029
rhand -31.0533 -23.4216
rfingers 7.12502
rthumb -4.33457 -53.3572
lclavicle -7.49418e-014 4.49253e-014
lhumerus -26.1653 -14.3843 92.115
lradius 31.6209
lwrist 4.46314
lhand -14.0516 -26.4515
lfingers 7.12502
lthumb 12.0793 3.17986
rfemur -36.1371 1.24947 24.8434
rtibia 45.718
rfoot -14.9956 2.62181
rtoes -10.9671
lfemur -2.72103 8.35494 -14.0043
ltibia 60.2599
lfoot 2.11589 13.8241
ltoes -8.82274
129
root 8.38923 16.1649 -8.58989 6.1 4.6104 -1.22212
lowerback -3.25941 -3.56365 -2.11362
upperback -0.220766 -4.74032 3.30725
thorax 2.05034 -2.40757 4.34217
lowerneck -21.2432 -2.46674 -11.9759
upperneck 19.13 -2.62627 12.8676
head 9.91387 -0.616803 6.23271
rclavicle -7.2954e-014 2.54444e-014
rhumerus -44.0434 1.91731 -77.513
rradius 28.1359
rwrist -16.063
rhand -29.9405 -23.3535
rfingers 7.12502
rthumb -3.26 -53.3083
lclavicle -7.2954e-014 2.54444e-014
lhumerus -26.6713 -13.6828 92.4531
lradius 30.7972
lwrist 4.05572
lhand -13.5164 -26.1542
lfingers 7.12502
lthumb 12.5954 3.44606
rfemur -35.2582 1.33116 24.9965
rtibia 45.1201
rfoot -15.2652 2.63193
rtoes -11.0499
lfemur -5.04886 8.21751 -14.3386
ltibia 62.2723
lfoot 0.795534 14.2932
ltoes -7.25889
130
root 8.38505 16.214 -8.4039 6.14996 4.4199 -1.03445
lowerback -3.24694 -3.39284 -2.37364
upperback -0.266011 -4.50133 3.26615
thorax 1.99116 -2.28862 4.46291
lowerneck -20.9104 -2.63667 -12.5116
upperneck 18.8729 -2.84089 13.4254
head 9.81096 -0.702616 6.48888
rclavicle -2.05245e-014 5.56597e-015
rhumerus -43.5753 2.8798 -78.3253
rradius 28.8189
rwrist -16.6237
rhand -28.2801 -26.1612
rfingers 7.12502
rthumb -1.65642 -56.1345
lclavicle -2.05245e-014 5.56597e-015
lhumerus -27.3924 -13.189 92.8399
lradius 30.1992
lwrist 3.94975
lhand -13.0047 -25.4406
lfingers 7.12502
lthumb 13.0887 4.12868
rfemur -34.191 1.35735 24.8714
rtibia 44.5762
rfoot -15.6306 2.71529
rtoes -11.1966
lfemur -7.04975 8.05648 -15.0385
ltibia 63.9479
lfoot -1.25949 14.8302
ltoes -12.7841
